<svg width="103" height="39" viewBox="0 0 103 39" fill="none" xmlns="http://www.w3.org/2000/svg">
<path d="M42.6624 12.9204H41.1525C41.1525 12.9204 41.1525 14.8195 41.1525 16.0986C41.1525 16.7276 40.654 17.2376 40.0391 17.2376C39.7925 17.2376 39.5312 17.2376 39.2846 17.2376C38.6697 17.2376 38.1713 16.7276 38.1713 16.0986V6.66489C38.1713 5.92894 38.457 5.22308 38.9658 4.70268C39.4745 4.18228 40.1645 3.88989 40.8839 3.88989C41.8312 3.88989 42.6624 3.88989 42.6624 3.88989C44.1079 3.88989 45.2791 4.30579 46.1761 5.13754C47.073 5.9693 47.5215 7.02549 47.5215 8.30613C47.5215 9.7716 47.0537 10.907 46.118 11.7124C45.1823 12.5177 44.0305 12.9204 42.6624 12.9204ZM42.314 6.32576H41.1525V10.5043H42.1398C43.7143 10.5043 44.5015 9.7716 44.5015 8.30613C44.5015 6.98589 43.7724 6.32576 42.314 6.32576Z" fill="#4F46E5"/>
<path d="M51.9398 15.2571C52.3399 15.2571 52.6497 15.1317 52.8691 14.8809C53.0885 14.63 53.1982 14.2868 53.1982 13.8511V13.1183H52.2883C51.8108 13.1183 51.443 13.2239 51.1848 13.4352C50.9267 13.6465 50.7977 13.9171 50.7977 14.2472C50.7977 14.9205 51.1784 15.2571 51.9398 15.2571ZM53.3337 16.0097C52.9207 16.8678 52.1076 17.2969 50.8944 17.2969C49.9394 17.2969 49.1941 17.0197 48.6585 16.4652C48.1229 15.9107 47.8552 15.2175 47.8552 14.3858C47.8552 13.422 48.2004 12.6728 48.8909 12.1381C49.5813 11.6033 50.6041 11.336 51.9592 11.336H53.1982V10.6429C53.1982 9.79794 52.6497 9.37543 51.5527 9.37543C51.1423 9.37543 50.7436 9.42111 50.3566 9.51239C49.9326 9.61032 49.4881 9.5057 49.1486 9.22806C48.8091 8.95041 48.6114 8.52988 48.6114 8.08522C48.6101 8.03007 48.6101 7.97927 48.6101 7.93378C48.6101 7.78279 48.6929 7.64458 48.8245 7.5761C49.586 7.20505 50.6307 7.0188 51.9592 7.0188C53.353 7.0188 54.3919 7.32578 55.0759 7.93967C55.7599 8.55359 56.102 9.50749 56.102 10.8013V14.7879C56.102 16.1408 55.0299 17.2375 53.7074 17.2375H53.7072C53.5009 17.2375 53.3337 17.0665 53.3337 16.8554C53.3337 16.495 53.3337 16.0097 53.3337 16.0097Z" fill="#4F46E5"/>
<path d="M63.9762 16.344C63.9763 16.7739 63.6849 17.1464 63.2748 17.2407C62.9172 17.3018 62.5063 17.3365 62.0404 17.3365C59.8077 17.3365 58.6913 16.1945 58.6913 13.9104V9.31598C58.6913 9.31598 58.5286 9.31598 58.3136 9.31598C57.7417 9.31598 57.2781 8.84176 57.2781 8.25675V8.25626C57.2781 7.67125 57.7417 7.19698 58.3136 7.19698C58.5286 7.19698 58.6913 7.19698 58.6913 7.19698C58.6913 7.19698 58.6913 6.76304 58.6913 6.26604C58.6913 5.4677 59.3239 4.82056 60.1043 4.82056H60.1047C60.8851 4.82056 61.5177 5.4677 61.5177 6.26604V7.19698H62.7666C63.3384 7.19698 63.802 7.67125 63.802 8.25626V8.25675C63.802 8.84176 63.3384 9.31598 62.7666 9.31598C62.1622 9.31598 61.5177 9.31598 61.5177 9.31598V13.9302C61.5177 14.2867 61.6177 14.5574 61.8177 14.7422C62.0178 14.927 62.2791 15.0195 62.6018 15.0195C62.6591 15.0195 62.7157 15.0178 62.7717 15.0146C63.0844 14.9969 63.3906 15.1117 63.6182 15.332C63.8457 15.5523 63.9746 15.8586 63.9746 16.1791C63.9762 16.2354 63.9762 16.2906 63.9762 16.344Z" fill="#4F46E5"/>
<path d="M68.2111 16.0971C68.2111 16.7269 67.7121 17.2375 67.0964 17.2375C66.9001 17.2375 66.6958 17.2375 66.4995 17.2375C65.8839 17.2375 65.3848 16.7269 65.3848 16.0971C65.3848 14.1649 65.3848 10.2696 65.3848 8.33737C65.3848 7.70756 65.8839 7.197 66.4995 7.197C66.6958 7.197 66.9001 7.197 67.0964 7.197C67.7121 7.197 68.2111 7.70756 68.2111 8.33737V16.0971ZM67.9595 3.09763C68.2821 3.42772 68.4435 3.82378 68.4435 4.28588C68.4435 4.74795 68.2821 5.14401 67.9595 5.4741C67.6369 5.80415 67.2497 5.96919 66.798 5.96919C66.3463 5.96919 65.9591 5.80415 65.6364 5.4741C65.3138 5.14401 65.1525 4.74795 65.1525 4.28588C65.1525 3.82378 65.3138 3.42772 65.6364 3.09763C65.9591 2.76758 66.3463 2.60254 66.798 2.60254C67.2497 2.60254 67.6369 2.76758 67.9595 3.09763Z" fill="#4F46E5"/>
<path d="M76.2028 16.344C76.2029 16.7739 75.9115 17.1464 75.5014 17.2407C75.1438 17.3018 74.7329 17.3365 74.267 17.3365C72.0342 17.3365 70.9179 16.1945 70.9179 13.9104V9.31598H70.5402C69.9683 9.31598 69.5047 8.84176 69.5047 8.25675V8.25626C69.5047 7.67125 69.9683 7.19698 70.5402 7.19698C70.7552 7.19698 70.9179 7.19698 70.9179 7.19698V6.26604C70.9179 5.4677 71.5505 4.82056 72.3309 4.82056C72.331 4.82056 72.3311 4.82056 72.3313 4.82056C73.1116 4.82056 73.7442 5.4677 73.7442 6.26604V7.19698H74.9931C75.565 7.19698 76.0286 7.67125 76.0286 8.25626V8.25675C76.0286 8.84176 75.565 9.31598 74.9931 9.31598C74.3888 9.31598 73.7442 9.31598 73.7442 9.31598V13.9302C73.7442 14.2867 73.8443 14.5574 74.0443 14.7422C74.2444 14.927 74.5057 15.0195 74.8283 15.0195C74.8857 15.0195 74.9423 15.0178 74.9982 15.0146C75.311 14.9969 75.6172 15.1117 75.8447 15.332C76.0723 15.5523 76.2012 15.8586 76.2012 16.1791C76.2028 16.2354 76.2028 16.2906 76.2028 16.344Z" fill="#4F46E5"/>
<path d="M81.5459 15.2571C81.946 15.2571 82.2557 15.1317 82.4751 14.8809C82.6945 14.63 82.8042 14.2868 82.8042 13.8511V13.1183H81.8943C81.4168 13.1183 81.049 13.2239 80.7909 13.4352C80.5328 13.6465 80.4037 13.9171 80.4037 14.2472C80.4037 14.9205 80.7844 15.2571 81.5459 15.2571ZM82.9397 16.0097C82.5267 16.8678 81.7136 17.2969 80.5005 17.2969C79.5455 17.2969 78.8002 17.0197 78.2646 16.4652C77.729 15.9107 77.4612 15.2175 77.4612 14.3858C77.4612 13.422 77.8064 12.6728 78.4969 12.1381C79.1873 11.6033 80.2101 11.336 81.5652 11.336H82.8042V10.6429C82.8042 9.79794 82.2557 9.37543 81.1587 9.37543C80.7484 9.37543 80.3497 9.42111 79.9626 9.51239C79.5386 9.61032 79.0941 9.5057 78.7546 9.22806C78.4151 8.95041 78.2174 8.52988 78.2174 8.08522C78.2162 8.03007 78.2162 7.97927 78.2162 7.93378C78.2161 7.78279 78.299 7.64458 78.4305 7.5761C79.1921 7.20505 80.2368 7.0188 81.5652 7.0188C82.9591 7.0188 83.998 7.32578 84.682 7.93967C85.366 8.55359 85.708 9.50749 85.708 10.8013V14.7879C85.708 16.1408 84.6359 17.2375 83.3134 17.2375H83.3132C83.1069 17.2375 82.9397 17.0665 82.9397 16.8554C82.9397 16.495 82.9397 16.0097 82.9397 16.0097Z" fill="#4F46E5"/>
<path d="M94.1484 14.2074C94.1484 15.1976 93.7999 15.9634 93.103 16.5047C92.4061 17.046 91.4833 17.3166 90.3347 17.3166C89.3916 17.3166 88.5707 17.1875 87.8718 16.9293C87.5626 16.806 87.359 16.5013 87.359 16.1617C87.3535 16.1616 87.3535 16.1615 87.3535 16.1614C87.3535 15.7577 87.5372 15.377 87.8503 15.1314C88.1635 14.8858 88.5706 14.8033 88.9516 14.9081C89.3515 15.0225 89.7611 15.0788 90.1799 15.0788C90.8897 15.0788 91.2446 14.8477 91.2446 14.3857C91.2446 14.2668 91.2123 14.1546 91.1478 14.049C91.0833 13.9434 90.9736 13.8444 90.8187 13.752C90.6638 13.6595 90.5219 13.5836 90.3928 13.5242C90.2637 13.4648 90.0766 13.3823 89.8314 13.2767C89.5862 13.1711 89.3991 13.0852 89.27 13.0192C87.9665 12.3855 87.3148 11.4349 87.3148 10.1675C87.3148 9.19051 87.6794 8.43134 88.4086 7.89004C89.1377 7.34878 90.0443 7.07812 91.1284 7.07812C91.9075 7.07812 92.5861 7.16112 93.1642 7.32719C93.4479 7.41638 93.6415 7.68449 93.6415 7.98816C93.6451 7.98816 93.6451 7.98816 93.6451 7.98816C93.645 8.40558 93.4677 8.8024 93.1591 9.07552C92.8505 9.34864 92.4412 9.47108 92.0373 9.41108C91.7836 9.37391 91.5193 9.35552 91.2446 9.35552C90.909 9.35552 90.6509 9.42483 90.4702 9.56347C90.2896 9.7021 90.1992 9.87702 90.1992 10.0883C90.1992 10.2071 90.2315 10.3193 90.296 10.4249C90.3605 10.5305 90.467 10.6296 90.6154 10.722C90.7639 10.8144 90.9058 10.8969 91.0413 10.9695C91.1768 11.0421 91.3639 11.1312 91.6027 11.2369C91.8415 11.3425 92.0318 11.4349 92.1738 11.5141C92.7675 11.831 93.245 12.1974 93.6063 12.6133C93.9677 13.0291 94.1484 13.5605 94.1484 14.2074Z" fill="#4F46E5"/>
<path d="M44.7517 29.2043C44.7517 30.4057 44.3193 31.3794 43.4546 32.1254C42.5899 32.8713 41.4413 33.2443 40.0088 33.2443C38.6933 33.2443 37.5861 33.0408 36.6872 32.634C36.4248 32.5073 36.2575 32.2372 36.2575 31.9404C36.2532 31.9404 36.2532 31.9403 36.2532 31.9403C36.2532 31.4301 36.4884 30.9498 36.8879 30.6443C37.2874 30.3388 37.8043 30.244 38.2827 30.3884C38.8422 30.5639 39.4178 30.65 40.0088 30.65C40.4605 30.65 40.8348 30.5279 41.1316 30.2836C41.4284 30.0394 41.5768 29.7192 41.5768 29.3231C41.5768 29.1911 41.5575 29.0657 41.5187 28.9469C41.48 28.828 41.409 28.7158 41.3058 28.6102C41.2026 28.5046 41.1025 28.4155 41.0057 28.3428C40.9089 28.2702 40.767 28.1844 40.5798 28.0854C40.3927 27.9864 40.2346 27.9038 40.1056 27.8378C39.9765 27.7718 39.7861 27.6794 39.5345 27.5606C39.2828 27.4418 39.0795 27.3494 38.9247 27.2833C38.0858 26.8873 37.4115 26.3988 36.9017 25.8179C36.3919 25.237 36.137 24.4646 36.137 23.5008C36.137 22.3522 36.55 21.4247 37.376 20.7184C38.2019 20.0121 39.3441 19.6589 40.8025 19.6589C41.8207 19.6589 42.7286 19.7959 43.5263 20.0698C43.9094 20.2105 44.1648 20.5821 44.1648 20.9985C44.1709 20.9985 44.1709 20.9986 44.1709 20.9987C44.1708 21.4524 43.9673 21.881 43.6188 22.1616C43.2702 22.4422 42.8151 22.5437 42.384 22.437C41.9034 22.3138 41.4148 22.2532 40.9186 22.2532C40.4153 22.2532 40.0313 22.3588 39.7668 22.5701C39.5022 22.7813 39.3699 23.052 39.3699 23.382C39.3699 23.7121 39.5313 24.0059 39.8539 24.2633C40.1766 24.5207 40.6605 24.7947 41.3058 25.0852C41.7059 25.27 42.0382 25.4317 42.3028 25.5703C42.5673 25.709 42.8706 25.9004 43.2126 26.1447C43.5546 26.3889 43.8257 26.6463 44.0257 26.917C44.2257 27.1876 44.3967 27.521 44.5387 27.9171C44.6807 28.3131 44.7517 28.7422 44.7517 29.2043Z" fill="#4F46E5"/>
<path d="M54.0097 32.2856C54.0098 32.4287 53.9353 32.561 53.8143 32.6328C53.1446 33.0001 52.1841 33.1848 50.9317 33.1848C49.3185 33.1848 48.0634 32.7062 47.1664 31.749C46.2695 30.7918 45.821 29.5607 45.821 28.0556C45.821 26.4581 46.2565 25.2072 47.1277 24.3028C47.9988 23.3985 49.0732 22.9463 50.3509 22.9463C51.6673 22.9463 52.7062 23.339 53.4677 24.1246C54.2291 24.9101 54.6098 26.0818 54.6098 27.6397C54.6098 27.8982 54.5724 28.3146 54.4976 28.8887C54.4746 29.0692 54.3243 29.2041 54.1464 29.2041C52.9504 29.2043 48.6861 29.2043 48.6861 29.2043C48.8797 29.7587 49.2152 30.1878 49.6927 30.4915C50.1703 30.7951 50.7445 30.947 51.4157 30.947C51.7632 30.947 52.0949 30.9123 52.4108 30.8428C52.8014 30.7579 53.2085 30.8579 53.5188 31.1149C53.8291 31.3719 54.0094 31.7585 54.0094 32.167C54.0097 32.2097 54.0097 32.2494 54.0097 32.2856ZM50.4671 25.1445C50.0154 25.1445 49.6153 25.3128 49.2669 25.6495C48.9184 25.9862 48.6861 26.4846 48.5699 27.1447H51.977V26.907C51.8867 25.732 51.3834 25.1445 50.4671 25.1445Z" fill="#4F46E5"/>
<path d="M65.3849 32.1154C65.3849 33.7261 64.9139 34.9374 63.9717 35.7494C63.0296 36.5613 61.8487 36.9673 60.4291 36.9673C59.7093 36.9673 59.0369 36.8991 58.4118 36.7629C57.478 36.5566 56.8114 35.7118 56.8114 34.7344C56.809 34.7344 56.809 34.7344 56.809 34.7344C56.809 34.4514 56.9476 34.1873 57.1782 34.031C57.4087 33.8747 57.7005 33.847 57.9552 33.9572C58.6055 34.2347 59.3335 34.373 60.1387 34.373C60.9905 34.373 61.61 34.1882 61.9971 33.8185C62.3843 33.4488 62.5779 32.8679 62.5779 32.0758V31.4025C62.0101 32.3002 61.1066 32.7491 59.8677 32.7491C58.7836 32.7491 57.8512 32.3398 57.0703 31.5213C56.2896 30.7027 55.8992 29.4881 55.8992 27.8774C55.8992 26.4515 56.2766 25.2732 57.0316 24.3425C57.7866 23.4117 58.7772 22.9463 60.0032 22.9463C61.1647 22.9463 62.0229 23.4216 62.5779 24.3721C62.5779 24.3721 62.5779 23.8511 62.5779 23.4621C62.5779 23.3515 62.6208 23.2455 62.6972 23.1674C62.7736 23.0892 62.8772 23.0453 62.9853 23.0453C62.9854 23.0453 62.9855 23.0453 62.9856 23.0453C63.6219 23.0453 64.2322 23.3039 64.6822 23.7642C65.1321 24.2245 65.3849 24.8488 65.3849 25.4998C65.3849 28.186 65.3849 32.1154 65.3849 32.1154ZM58.8417 27.8972C58.8417 28.729 58.9966 29.3627 59.3063 29.7983C59.616 30.234 60.0613 30.4519 60.642 30.4519C61.2486 30.4519 61.7229 30.2175 62.0649 29.7488C62.4069 29.2801 62.5779 28.7157 62.5779 28.0556C62.5779 26.2601 61.9391 25.3623 60.6614 25.3623C60.0935 25.3623 59.6483 25.5868 59.3256 26.0356C59.003 26.4846 58.8417 27.1051 58.8417 27.8972Z" fill="#4F46E5"/>
<path d="M75.958 30.4133C75.958 31.9002 74.7797 33.1057 73.3261 33.1057C73.3261 33.1057 73.326 33.1057 73.326 33.1057C73.2186 33.1057 73.1316 33.0167 73.1316 32.9069C73.1316 32.4774 73.1316 31.5016 73.1316 31.5016C72.6154 32.6238 71.6217 33.1849 70.1504 33.1849C69.1437 33.1849 68.3597 32.8978 67.7983 32.3234C67.2369 31.7491 66.9562 30.9009 66.9562 29.7786C66.9562 29.7786 66.9562 26.4839 66.9562 24.5107C66.9562 23.7124 67.5888 23.0652 68.3692 23.0652C68.3694 23.0652 68.3695 23.0652 68.3696 23.0652C69.15 23.0652 69.7826 23.7124 69.7826 24.5107V29.1251C69.7826 30.3002 70.2859 30.8877 71.2926 30.8877C72.5186 30.8877 73.1316 30.0493 73.1316 28.3726C73.1316 28.3726 73.1316 26.0823 73.1316 24.5107C73.1316 24.1273 73.2805 23.7596 73.5455 23.4886C73.8105 23.2175 74.1699 23.0652 74.5447 23.0652C74.5448 23.0652 74.5449 23.0652 74.545 23.0652C75.3254 23.0652 75.958 23.7124 75.958 24.5107C75.958 26.0483 75.958 28.5157 75.958 30.4133Z" fill="#4F46E5"/>
<path d="M80.5429 31.6603C80.5429 32.4586 79.9103 33.1057 79.1299 33.1057C79.1297 33.1057 79.1296 33.1057 79.1295 33.1057C78.755 33.1057 78.3959 32.9533 78.1314 32.6822C77.8668 32.4111 77.7186 32.0434 77.7193 31.6603C77.723 29.7497 77.7294 26.4038 77.7331 24.4991C77.7346 23.7068 78.363 23.0653 79.1375 23.0653C79.1376 23.0653 79.1377 23.0653 79.1377 23.0653C79.9138 23.0653 80.5429 23.7089 80.5429 24.5027V24.9268C80.7236 24.3459 81.0236 23.8805 81.443 23.5307C81.8625 23.1808 82.3497 23.0059 82.9046 23.0059C83.3109 23.0059 83.6403 23.3428 83.6403 23.7584C83.6403 23.9868 83.6403 24.2504 83.6403 24.5111C83.6402 25.1125 83.1636 25.6 82.5757 25.6C82.5756 25.6002 82.5756 25.6002 82.5755 25.6002C81.969 25.6002 81.4786 25.8279 81.1043 26.2834C80.73 26.7389 80.5429 27.3429 80.5429 28.0954C80.5429 28.0954 80.5429 30.1803 80.5429 31.6603Z" fill="#4F46E5"/>
<path d="M88.4569 31.1253C88.8569 31.1253 89.1667 30.9999 89.3861 30.749C89.6055 30.4982 89.7152 30.1549 89.7152 29.7193V28.9865H88.8053C88.3278 28.9865 87.96 29.0921 87.7019 29.3034C87.4438 29.5146 87.3147 29.7853 87.3147 30.1153C87.3147 30.7886 87.6954 31.1253 88.4569 31.1253ZM89.8507 31.8779C89.4377 32.736 88.6247 33.1651 87.4115 33.1651C86.4565 33.1651 85.7112 32.8878 85.1756 32.3334C84.64 31.7788 84.3722 31.0857 84.3722 30.254C84.3722 29.2902 84.7174 28.5409 85.4079 28.0062C86.0984 27.4715 87.1211 27.2042 88.4763 27.2042H89.7152V26.511C89.7152 25.6661 89.1667 25.2436 88.0697 25.2436C87.6594 25.2436 87.2607 25.2893 86.8736 25.3806C86.4496 25.4785 86.0051 25.3739 85.6656 25.0962C85.3261 24.8186 85.1285 24.398 85.1285 23.9534C85.1272 23.8982 85.1272 23.8474 85.1272 23.8019C85.1272 23.651 85.21 23.5127 85.3415 23.4443C86.1031 23.0732 87.1478 22.887 88.4763 22.887C89.8701 22.887 90.909 23.1939 91.593 23.8078C92.277 24.4218 92.619 25.3756 92.619 26.6695V30.6561C92.619 32.009 91.5469 33.1057 90.2244 33.1057C90.2244 33.1057 90.2243 33.1057 90.2242 33.1057C90.0179 33.1057 89.8507 32.9346 89.8507 32.7236V31.8779Z" fill="#4F46E5"/>
<path d="M100.982 30.0756C100.982 31.0658 100.634 31.8315 99.9368 32.3728C99.2399 32.9141 98.3171 33.1848 97.1685 33.1848C96.225 33.1848 95.4037 33.0556 94.7047 32.7971C94.396 32.674 94.1927 32.3697 94.1927 32.0308C94.1873 32.0307 94.1873 32.0307 94.1873 32.0306C94.1873 31.6267 94.371 31.2459 94.6843 31.0001C94.9976 30.7543 95.4049 30.6717 95.7862 30.7764C96.1858 30.8908 96.5951 30.947 97.0137 30.947C97.7234 30.947 98.0784 30.7159 98.0784 30.2538C98.0784 30.135 98.0461 30.0228 97.9816 29.9172C97.917 29.8116 97.8073 29.7125 97.6525 29.6201C97.4976 29.5277 97.3556 29.4518 97.2266 29.3924C97.0975 29.333 96.9104 29.2505 96.6652 29.1448C96.42 29.0392 96.2328 28.9534 96.1038 28.8874C94.8003 28.2537 94.1486 27.3031 94.1486 26.0356C94.1486 25.0587 94.5131 24.2995 95.2423 23.7582C95.9715 23.2169 96.8781 22.9463 97.9622 22.9463C98.7403 22.9463 99.4183 23.0291 99.9959 23.1948C100.281 23.2842 100.475 23.5534 100.475 23.8583C100.479 23.8583 100.479 23.8583 100.479 23.8584C100.479 24.2754 100.302 24.6717 99.9934 24.9445C99.6851 25.2173 99.2761 25.3396 98.8728 25.2795C98.6185 25.2422 98.3537 25.2237 98.0784 25.2237C97.7428 25.2237 97.4847 25.293 97.304 25.4316C97.1234 25.5703 97.033 25.7452 97.033 25.9564C97.033 26.0753 97.0653 26.1875 97.1298 26.2931C97.1943 26.3987 97.3008 26.4977 97.4492 26.5902C97.5976 26.6826 97.7396 26.7651 97.8751 26.8377C98.0106 26.9103 98.1978 26.9994 98.4365 27.1051C98.6753 27.2107 98.8656 27.3031 99.0076 27.3823C99.6013 27.6992 100.079 28.0655 100.44 28.4814C100.801 28.8973 100.982 29.4287 100.982 30.0756Z" fill="#4F46E5"/>
<path fillRule="evenodd" clipRule="evenodd" d="M10.8628 2.04936C12.8261 1.65368 14.8722 3.68019 15.4291 6.57196C15.9859 9.4637 14.8441 12.1327 12.8807 12.5283C10.9175 12.924 8.87137 10.8974 8.31451 8.00571C7.75763 5.11397 8.89949 2.445 10.8628 2.04936Z" fill="#FB923C"/>
<path fillRule="evenodd" clipRule="evenodd" d="M22.6326 2.04936C20.6693 1.65368 18.6232 3.68019 18.0663 6.57196C17.5095 9.4637 18.6513 12.1327 20.6147 12.5283C22.578 12.924 24.624 10.8974 25.1809 8.00571C25.7378 5.11397 24.5959 2.445 22.6326 2.04936Z" fill="#FB923C"/>
<path fillRule="evenodd" clipRule="evenodd" d="M3.07585 10.6549C4.47389 9.69738 6.70304 10.5917 8.0507 12.6509C9.39837 14.71 9.3575 17.1591 7.95947 18.1167C6.56143 19.0742 4.33228 18.1798 2.98461 16.1207C1.63695 14.0616 1.67782 11.6124 3.07585 10.6549Z" fill="#FB923C"/>
<path fillRule="evenodd" clipRule="evenodd" d="M31.2814 10.6549C29.8834 9.69738 27.6543 10.5917 26.3066 12.6509C24.9589 14.71 24.9998 17.1591 26.3978 18.1167C27.7958 19.0742 30.025 18.1798 31.3727 16.1207C32.7203 14.0616 32.6795 11.6124 31.2814 10.6549Z" fill="#FB923C"/>
<path fillRule="evenodd" clipRule="evenodd" d="M15.7653 32.3092C13.0148 35.1138 9.02464 35.8801 6.8563 33.8574C4.27576 31.45 4.27576 26.6353 6.8563 21.8206C7.89764 19.7389 9.88232 17.6572 12.1179 15.8058C15.0707 13.3677 19.2864 13.3678 22.239 15.8062C24.4748 17.6572 26.4595 19.7389 27.5009 21.8206C30.0815 26.6353 30.0815 31.45 27.5009 33.8574C25.3326 35.8801 21.3423 35.1138 18.5917 32.3094C17.8035 31.5301 16.5535 31.53 15.7653 32.3092ZM15.6366 23.7446L14.531 27.5414C14.45 27.8066 14.4971 28.0954 14.6579 28.3193C14.8188 28.5432 15.0742 28.6754 15.3458 28.6754H19.039C19.3072 28.6754 19.5597 28.5465 19.721 28.3274C19.8823 28.1082 19.9336 27.8243 19.8595 27.5607L18.7866 23.7444C19.6198 23.2003 20.1728 22.2461 20.1728 21.1607C20.1728 19.4702 18.8312 18.0977 17.1786 18.0977C15.5261 18.0977 14.1844 19.4702 14.1844 21.1607C14.1844 22.2895 14.7471 23.2133 15.6366 23.7446Z" fill="#FB923C"/>
</svg>
