<svg width="130" height="49" viewBox="0 0 130 49" fill="none" xmlns="http://www.w3.org/2000/svg">
<path d="M40.6624 17.9366H39.1525C39.1525 17.9366 39.1525 19.8357 39.1525 21.1148C39.1525 21.7438 38.654 22.2538 38.0391 22.2538C37.7925 22.2538 37.5312 22.2538 37.2846 22.2538C36.6697 22.2538 36.1713 21.7438 36.1713 21.1148V11.6811C36.1713 10.9451 36.457 10.2393 36.9658 9.71886C37.4745 9.19846 38.1645 8.90607 38.8839 8.90607C39.8312 8.90607 40.6624 8.90607 40.6624 8.90607C42.1079 8.90607 43.2791 9.32196 44.1761 10.1537C45.073 10.9855 45.5215 12.0417 45.5215 13.3223C45.5215 14.7878 45.0537 15.9232 44.118 16.7285C43.1823 17.5339 42.0305 17.9366 40.6624 17.9366ZM40.314 11.3419H39.1525V15.5205H40.1398C41.7143 15.5205 42.5015 14.7878 42.5015 13.3223C42.5015 12.0021 41.7724 11.3419 40.314 11.3419Z" fill="#FB923C"/>
<path d="M49.9398 20.2734C50.3399 20.2734 50.6497 20.148 50.8691 19.8972C51.0885 19.6463 51.1982 19.303 51.1982 18.8674V18.1346H50.2883C49.8108 18.1346 49.443 18.2402 49.1848 18.4515C48.9267 18.6628 48.7977 18.9334 48.7977 19.2635C48.7977 19.9368 49.1784 20.2734 49.9398 20.2734ZM51.3337 21.026C50.9207 21.8841 50.1076 22.3132 48.8944 22.3132C47.9394 22.3132 47.1941 22.036 46.6585 21.4814C46.1229 20.927 45.8552 20.2338 45.8552 19.4021C45.8552 18.4383 46.2004 17.6891 46.8909 17.1544C47.5813 16.6196 48.6041 16.3523 49.9592 16.3523H51.1982V15.6592C51.1982 14.8142 50.6497 14.3917 49.5527 14.3917C49.1423 14.3917 48.7436 14.4374 48.3566 14.5287C47.9326 14.6266 47.4881 14.522 47.1486 14.2444C46.8091 13.9667 46.6114 13.5462 46.6114 13.1015C46.6101 13.0464 46.6101 12.9956 46.6101 12.9501C46.6101 12.7991 46.6929 12.6609 46.8245 12.5924C47.586 12.2213 48.6307 12.0351 49.9592 12.0351C51.353 12.0351 52.3919 12.3421 53.0759 12.956C53.7599 13.5699 54.102 14.5238 54.102 15.8176V19.8042C54.102 21.1571 53.0299 22.2538 51.7074 22.2538H51.7072C51.5009 22.2538 51.3337 22.0828 51.3337 21.8717C51.3337 21.5113 51.3337 21.026 51.3337 21.026Z" fill="#FB923C"/>
<path d="M61.9762 21.3603C61.9763 21.7902 61.6849 22.1627 61.2748 22.257C60.9172 22.3181 60.5063 22.3528 60.0404 22.3528C57.8077 22.3528 56.6913 21.2107 56.6913 18.9267V14.3323C56.6913 14.3323 56.5286 14.3323 56.3136 14.3323C55.7417 14.3323 55.2781 13.8581 55.2781 13.273V13.2726C55.2781 12.6875 55.7417 12.2133 56.3136 12.2133C56.5286 12.2133 56.6913 12.2133 56.6913 12.2133C56.6913 12.2133 56.6913 11.7793 56.6913 11.2823C56.6913 10.484 57.3239 9.83685 58.1043 9.83685H58.1047C58.8851 9.83685 59.5177 10.484 59.5177 11.2823V12.2133H60.7666C61.3384 12.2133 61.802 12.6875 61.802 13.2726V13.273C61.802 13.8581 61.3384 14.3323 60.7666 14.3323C60.1622 14.3323 59.5177 14.3323 59.5177 14.3323V18.9465C59.5177 19.303 59.6177 19.5737 59.8177 19.7585C60.0178 19.9433 60.2791 20.0358 60.6018 20.0358C60.6591 20.0358 60.7157 20.0341 60.7717 20.0309C61.0844 20.0132 61.3906 20.128 61.6182 20.3483C61.8457 20.5686 61.9746 20.8749 61.9746 21.1954C61.9762 21.2517 61.9762 21.3069 61.9762 21.3603Z" fill="#FB923C"/>
<path d="M66.2111 21.1134C66.2111 21.7432 65.7121 22.2538 65.0964 22.2538C64.9001 22.2538 64.6958 22.2538 64.4995 22.2538C63.8839 22.2538 63.3848 21.7432 63.3848 21.1134C63.3848 19.1812 63.3848 15.2858 63.3848 13.3537C63.3848 12.7239 63.8839 12.2133 64.4995 12.2133C64.6958 12.2133 64.9001 12.2133 65.0964 12.2133C65.7121 12.2133 66.2111 12.7239 66.2111 13.3537V21.1134ZM65.9595 8.11393C66.2821 8.44401 66.4435 8.84007 66.4435 9.30218C66.4435 9.76425 66.2821 10.1603 65.9595 10.4904C65.6369 10.8204 65.2497 10.9855 64.798 10.9855C64.3463 10.9855 63.9591 10.8204 63.6364 10.4904C63.3138 10.1603 63.1525 9.76425 63.1525 9.30218C63.1525 8.84007 63.3138 8.44401 63.6364 8.11393C63.9591 7.78388 64.3463 7.61884 64.798 7.61884C65.2497 7.61884 65.6369 7.78388 65.9595 8.11393Z" fill="#FB923C"/>
<path d="M74.2028 21.3603C74.2029 21.7902 73.9115 22.1627 73.5014 22.257C73.1438 22.3181 72.7329 22.3528 72.267 22.3528C70.0342 22.3528 68.9179 21.2107 68.9179 18.9267V14.3323H68.5402C67.9683 14.3323 67.5047 13.8581 67.5047 13.273V13.2726C67.5047 12.6875 67.9683 12.2133 68.5402 12.2133C68.7552 12.2133 68.9179 12.2133 68.9179 12.2133V11.2823C68.9179 10.484 69.5505 9.83685 70.3309 9.83685C70.331 9.83685 70.3311 9.83685 70.3313 9.83685C71.1116 9.83685 71.7442 10.484 71.7442 11.2823V12.2133H72.9931C73.565 12.2133 74.0286 12.6875 74.0286 13.2726V13.273C74.0286 13.8581 73.565 14.3323 72.9931 14.3323C72.3888 14.3323 71.7442 14.3323 71.7442 14.3323V18.9465C71.7442 19.303 71.8443 19.5737 72.0443 19.7585C72.2444 19.9433 72.5057 20.0358 72.8283 20.0358C72.8857 20.0358 72.9423 20.0341 72.9982 20.0309C73.311 20.0132 73.6172 20.128 73.8447 20.3483C74.0723 20.5686 74.2012 20.8749 74.2012 21.1954C74.2028 21.2517 74.2028 21.3069 74.2028 21.3603Z" fill="#FB923C"/>
<path d="M79.5459 20.2734C79.946 20.2734 80.2557 20.148 80.4751 19.8972C80.6945 19.6463 80.8042 19.303 80.8042 18.8674V18.1346H79.8943C79.4168 18.1346 79.049 18.2402 78.7909 18.4515C78.5328 18.6628 78.4037 18.9334 78.4037 19.2635C78.4037 19.9368 78.7844 20.2734 79.5459 20.2734ZM80.9397 21.026C80.5267 21.8841 79.7136 22.3132 78.5005 22.3132C77.5455 22.3132 76.8002 22.036 76.2646 21.4814C75.729 20.927 75.4612 20.2338 75.4612 19.4021C75.4612 18.4383 75.8064 17.6891 76.4969 17.1544C77.1873 16.6196 78.2101 16.3523 79.5652 16.3523H80.8042V15.6592C80.8042 14.8142 80.2557 14.3917 79.1587 14.3917C78.7484 14.3917 78.3497 14.4374 77.9626 14.5287C77.5386 14.6266 77.0941 14.522 76.7546 14.2444C76.4151 13.9667 76.2174 13.5462 76.2174 13.1015C76.2162 13.0464 76.2162 12.9956 76.2162 12.9501C76.2161 12.7991 76.299 12.6609 76.4305 12.5924C77.1921 12.2213 78.2368 12.0351 79.5652 12.0351C80.9591 12.0351 81.998 12.3421 82.682 12.956C83.366 13.5699 83.708 14.5238 83.708 15.8176V19.8042C83.708 21.1571 82.6359 22.2538 81.3134 22.2538H81.3132C81.1069 22.2538 80.9397 22.0828 80.9397 21.8717C80.9397 21.5113 80.9397 21.026 80.9397 21.026Z" fill="#FB923C"/>
<path d="M92.1484 19.2238C92.1484 20.214 91.7999 20.9797 91.103 21.521C90.4061 22.0623 89.4833 22.333 88.3347 22.333C87.3916 22.333 86.5707 22.2039 85.8718 21.9456C85.5626 21.8224 85.359 21.5176 85.359 21.1781C85.3535 21.178 85.3535 21.1779 85.3535 21.1778C85.3535 20.7741 85.5372 20.3934 85.8503 20.1478C86.1635 19.9022 86.5706 19.8196 86.9516 19.9244C87.3515 20.0389 87.7611 20.0952 88.1799 20.0952C88.8897 20.0952 89.2446 19.8641 89.2446 19.402C89.2446 19.2832 89.2123 19.171 89.1478 19.0654C89.0833 18.9597 88.9736 18.8607 88.8187 18.7683C88.6638 18.6759 88.5219 18.6 88.3928 18.5406C88.2637 18.4812 88.0766 18.3986 87.8314 18.293C87.5862 18.1874 87.3991 18.1016 87.27 18.0356C85.9665 17.4019 85.3148 16.4513 85.3148 15.1838C85.3148 14.2069 85.6794 13.4477 86.4086 12.9064C87.1377 12.3651 88.0443 12.0945 89.1284 12.0945C89.9075 12.0945 90.5861 12.1775 91.1642 12.3435C91.4479 12.4327 91.6415 12.7008 91.6415 13.0045C91.6451 13.0045 91.6451 13.0045 91.6451 13.0045C91.645 13.4219 91.4677 13.8188 91.1591 14.0919C90.8505 14.365 90.4412 14.4874 90.0373 14.4274C89.7836 14.3903 89.5193 14.3719 89.2446 14.3719C88.909 14.3719 88.6509 14.4412 88.4702 14.5798C88.2896 14.7185 88.1992 14.8934 88.1992 15.1046C88.1992 15.2234 88.2315 15.3356 88.296 15.4413C88.3605 15.5469 88.467 15.6459 88.6154 15.7384C88.7639 15.8307 88.9058 15.9133 89.0413 15.9859C89.1768 16.0585 89.3639 16.1476 89.6027 16.2532C89.8415 16.3589 90.0318 16.4513 90.1738 16.5305C90.7675 16.8473 91.245 17.2137 91.6063 17.6296C91.9677 18.0455 92.1484 18.5769 92.1484 19.2238Z" fill="#FB923C"/>
<path d="M42.7517 34.2206C42.7517 35.422 42.3193 36.3957 41.4546 37.1417C40.5899 37.8876 39.4413 38.2606 38.0088 38.2606C36.6933 38.2606 35.5861 38.0571 34.6872 37.6503C34.4248 37.5236 34.2575 37.2535 34.2575 36.9567C34.2532 36.9567 34.2532 36.9566 34.2532 36.9566C34.2532 36.4464 34.4884 35.9661 34.8879 35.6606C35.2874 35.3551 35.8043 35.2603 36.2827 35.4047C36.8422 35.5802 37.4178 35.6663 38.0088 35.6663C38.4605 35.6663 38.8348 35.5442 39.1316 35.2999C39.4284 35.0557 39.5768 34.7355 39.5768 34.3394C39.5768 34.2074 39.5575 34.082 39.5187 33.9632C39.48 33.8443 39.409 33.7321 39.3058 33.6265C39.2026 33.5209 39.1025 33.4318 39.0057 33.3591C38.9089 33.2865 38.767 33.2007 38.5798 33.1017C38.3927 33.0027 38.2346 32.9201 38.1056 32.8541C37.9765 32.7881 37.7861 32.6957 37.5345 32.5769C37.2828 32.4581 37.0795 32.3657 36.9247 32.2996C36.0858 31.9036 35.4115 31.4151 34.9017 30.8342C34.3919 30.2533 34.137 29.4809 34.137 28.5171C34.137 27.3685 34.55 26.441 35.376 25.7347C36.2019 25.0284 37.3441 24.6752 38.8025 24.6752C39.8207 24.6752 40.7286 24.8122 41.5263 25.0861C41.9094 25.2268 42.1648 25.5984 42.1648 26.0148C42.1709 26.0148 42.1709 26.0149 42.1709 26.015C42.1708 26.4687 41.9673 26.8973 41.6188 27.1779C41.2702 27.4585 40.8151 27.56 40.384 27.4533C39.9034 27.3301 39.4148 27.2695 38.9186 27.2695C38.4153 27.2695 38.0313 27.3751 37.7668 27.5864C37.5022 27.7976 37.3699 28.0683 37.3699 28.3983C37.3699 28.7284 37.5313 29.0221 37.8539 29.2796C38.1766 29.537 38.6605 29.811 39.3058 30.1014C39.7059 30.2863 40.0382 30.448 40.3028 30.5866C40.5673 30.7253 40.8706 30.9167 41.2126 31.1609C41.5546 31.4052 41.8257 31.6626 42.0257 31.9333C42.2257 32.2039 42.3967 32.5373 42.5387 32.9334C42.6807 33.3294 42.7517 33.7585 42.7517 34.2206Z" fill="#FB923C"/>
<path d="M52.0097 37.3019C52.0098 37.4451 51.9353 37.5773 51.8143 37.6491C51.1446 38.0165 50.1841 38.2012 48.9317 38.2012C47.3185 38.2012 46.0634 37.7226 45.1664 36.7654C44.2695 35.8082 43.821 34.5771 43.821 33.072C43.821 31.4745 44.2565 30.2235 45.1277 29.3192C45.9988 28.4148 47.0732 27.9626 48.3509 27.9626C49.6673 27.9626 50.7062 28.3554 51.4677 29.1409C52.2291 29.9265 52.6098 31.0982 52.6098 32.6561C52.6098 32.9146 52.5724 33.3309 52.4976 33.905C52.4746 34.0855 52.3243 34.2205 52.1464 34.2205C50.9504 34.2206 46.6861 34.2206 46.6861 34.2206C46.8797 34.7751 47.2152 35.2042 47.6927 35.5078C48.1703 35.8115 48.7445 35.9633 49.4157 35.9633C49.7632 35.9633 50.0949 35.9286 50.4108 35.8592C50.8014 35.7743 51.2085 35.8742 51.5188 36.1313C51.8291 36.3883 52.0094 36.7749 52.0094 37.1833C52.0097 37.2261 52.0097 37.2658 52.0097 37.3019ZM48.4671 30.1608C48.0154 30.1608 47.6153 30.3292 47.2669 30.6659C46.9184 31.0025 46.6861 31.5009 46.5699 32.161H49.977V31.9234C49.8867 30.7484 49.3834 30.1608 48.4671 30.1608Z" fill="#FB923C"/>
<path d="M63.3849 37.1317C63.3849 38.7425 62.9139 39.9538 61.9717 40.7657C61.0296 41.5777 59.8487 41.9837 58.4291 41.9837C57.7093 41.9837 57.0369 41.9155 56.4118 41.7792C55.478 41.5729 54.8114 40.7281 54.8114 39.7508C54.809 39.7508 54.809 39.7507 54.809 39.7507C54.809 39.4678 54.9476 39.2037 55.1782 39.0474C55.4087 38.8911 55.7005 38.8633 55.9552 38.9735C56.6055 39.251 57.3335 39.3894 58.1387 39.3894C58.9905 39.3894 59.61 39.2045 59.9971 38.8349C60.3843 38.4652 60.5779 37.8843 60.5779 37.0921V36.4188C60.0101 37.3166 59.1066 37.7655 57.8677 37.7655C56.7836 37.7655 55.8512 37.3562 55.0703 36.5376C54.2896 35.7191 53.8992 34.5045 53.8992 32.8938C53.8992 31.4679 54.2766 30.2896 55.0316 29.3588C55.7866 28.428 56.7772 27.9626 58.0032 27.9626C59.1647 27.9626 60.0229 28.4379 60.5779 29.3885C60.5779 29.3885 60.5779 28.8675 60.5779 28.4784C60.5779 28.3679 60.6208 28.2619 60.6972 28.1837C60.7736 28.1056 60.8772 28.0616 60.9853 28.0616C60.9854 28.0616 60.9855 28.0616 60.9856 28.0616C61.6219 28.0616 62.2322 28.3202 62.6822 28.7806C63.1321 29.2409 63.3849 29.8652 63.3849 30.5162C63.3849 33.2023 63.3849 37.1317 63.3849 37.1317ZM56.8417 32.9136C56.8417 33.7453 56.9966 34.379 57.3063 34.8147C57.616 35.2504 58.0613 35.4682 58.642 35.4682C59.2486 35.4682 59.7229 35.2339 60.0649 34.7652C60.4069 34.2965 60.5779 33.7321 60.5779 33.072C60.5779 31.2764 59.9391 30.3787 58.6614 30.3787C58.0935 30.3787 57.6483 30.6031 57.3256 31.052C57.003 31.5009 56.8417 32.1214 56.8417 32.9136Z" fill="#FB923C"/>
<path d="M73.958 35.4295C73.958 36.9165 72.7797 38.1219 71.3261 38.1219C71.3261 38.1219 71.326 38.1219 71.326 38.1219C71.2186 38.1219 71.1316 38.0329 71.1316 37.9231C71.1316 37.4937 71.1316 36.5178 71.1316 36.5178C70.6154 37.64 69.6217 38.2011 68.1504 38.2011C67.1437 38.2011 66.3597 37.914 65.7983 37.3397C65.2369 36.7654 64.9562 35.9171 64.9562 34.7949C64.9562 34.7949 64.9562 31.5001 64.9562 29.5269C64.9562 28.7286 65.5888 28.0815 66.3692 28.0814C66.3694 28.0814 66.3695 28.0814 66.3696 28.0814C67.15 28.0815 67.7826 28.7286 67.7826 29.5269V34.1414C67.7826 35.3164 68.2859 35.9039 69.2926 35.9039C70.5186 35.9039 71.1316 35.0655 71.1316 33.3888C71.1316 33.3888 71.1316 31.0985 71.1316 29.5269C71.1316 29.1435 71.2805 28.7759 71.5455 28.5048C71.8105 28.2337 72.1699 28.0814 72.5447 28.0814C72.5448 28.0814 72.5449 28.0814 72.545 28.0814C73.3254 28.0815 73.958 28.7286 73.958 29.5269C73.958 31.0646 73.958 33.532 73.958 35.4295Z" fill="#FB923C"/>
<path d="M78.5429 36.6765C78.5429 37.4748 77.9103 38.1219 77.1299 38.1219C77.1297 38.1219 77.1296 38.1219 77.1295 38.1219C76.755 38.1219 76.3959 37.9695 76.1314 37.6984C75.8668 37.4272 75.7186 37.0596 75.7193 36.6765C75.723 34.7659 75.7294 31.42 75.7331 29.5153C75.7346 28.7229 76.363 28.0814 77.1375 28.0814C77.1376 28.0814 77.1377 28.0814 77.1377 28.0814C77.9138 28.0814 78.5429 28.725 78.5429 29.5189V29.943C78.7236 29.3621 79.0236 28.8967 79.443 28.5468C79.8625 28.197 80.3497 28.022 80.9046 28.022C81.3109 28.022 81.6403 28.359 81.6403 28.7746C81.6403 29.003 81.6403 29.2666 81.6403 29.5273C81.6402 30.1287 81.1636 30.6162 80.5757 30.6162C80.5756 30.6163 80.5756 30.6163 80.5755 30.6163C79.969 30.6163 79.4786 30.8441 79.1043 31.2995C78.73 31.755 78.5429 32.359 78.5429 33.1116C78.5429 33.1116 78.5429 35.1965 78.5429 36.6765Z" fill="#FB923C"/>
<path d="M86.4569 36.1415C86.8569 36.1415 87.1667 36.0161 87.3861 35.7653C87.6055 35.5144 87.7152 35.1712 87.7152 34.7355V34.0027H86.8053C86.3278 34.0027 85.96 34.1084 85.7019 34.3196C85.4438 34.5309 85.3147 34.8015 85.3147 35.1316C85.3147 35.8049 85.6954 36.1415 86.4569 36.1415ZM87.8507 36.8941C87.4377 37.7523 86.6247 38.1813 85.4115 38.1813C84.4565 38.1813 83.7112 37.9041 83.1756 37.3496C82.64 36.7951 82.3722 36.1019 82.3722 35.2702C82.3722 34.3064 82.7174 33.5572 83.4079 33.0225C84.0984 32.4878 85.1211 32.2204 86.4763 32.2204H87.7152V31.5273C87.7152 30.6823 87.1667 30.2599 86.0697 30.2599C85.6594 30.2599 85.2607 30.3055 84.8736 30.3968C84.4496 30.4947 84.0051 30.3901 83.6656 30.1125C83.3261 29.8348 83.1285 29.4143 83.1285 28.9696C83.1272 28.9145 83.1272 28.8637 83.1272 28.8182C83.1272 28.6672 83.21 28.529 83.3415 28.4605C84.1031 28.0894 85.1478 27.9032 86.4763 27.9032C87.8701 27.9032 88.909 28.2102 89.593 28.8241C90.277 29.438 90.619 30.3919 90.619 31.6857V35.6723C90.619 37.0252 89.5469 38.1219 88.2244 38.1219C88.2244 38.1219 88.2243 38.1219 88.2242 38.1219C88.0179 38.1219 87.8507 37.9509 87.8507 37.7398V36.8941Z" fill="#FB923C"/>
<path d="M98.9822 35.092C98.9822 36.0822 98.6337 36.8479 97.9368 37.3892C97.2399 37.9305 96.3171 38.2012 95.1685 38.2012C94.225 38.2012 93.4037 38.0719 92.7047 37.8135C92.396 37.6903 92.1927 37.3861 92.1927 37.0471C92.1873 37.0471 92.1873 37.047 92.1873 37.047C92.1873 36.6431 92.371 36.2622 92.6843 36.0164C92.9976 35.7707 93.4049 35.688 93.7862 35.7928C94.1858 35.9072 94.5951 35.9633 95.0137 35.9633C95.7234 35.9633 96.0784 35.7323 96.0784 35.2702C96.0784 35.1514 96.0461 35.0391 95.9816 34.9335C95.917 34.8279 95.8073 34.7289 95.6525 34.6365C95.4976 34.5441 95.3556 34.4682 95.2266 34.4087C95.0975 34.3493 94.9104 34.2668 94.6652 34.1612C94.42 34.0556 94.2328 33.9698 94.1038 33.9038C92.8003 33.27 92.1486 32.3194 92.1486 31.052C92.1486 30.075 92.5131 29.3159 93.2423 28.7746C93.9715 28.2333 94.8781 27.9626 95.9622 27.9626C96.7403 27.9626 97.4183 28.0455 97.9959 28.2111C98.2808 28.3006 98.4753 28.5697 98.4753 28.8746C98.4788 28.8747 98.4788 28.8747 98.4788 28.8747C98.4788 29.2917 98.3016 29.6881 97.9934 29.9609C97.6851 30.2337 97.2761 30.3559 96.8728 30.2959C96.6185 30.2585 96.3537 30.2401 96.0784 30.2401C95.7428 30.2401 95.4847 30.3094 95.304 30.448C95.1234 30.5866 95.033 30.7615 95.033 30.9728C95.033 31.0916 95.0653 31.2039 95.1298 31.3095C95.1943 31.4151 95.3008 31.5141 95.4492 31.6065C95.5976 31.6989 95.7396 31.7814 95.8751 31.8541C96.0106 31.9267 96.1978 32.0158 96.4365 32.1214C96.6753 32.227 96.8656 32.3194 97.0076 32.3987C97.6013 32.7155 98.0788 33.0819 98.4401 33.4978C98.8015 33.9136 98.9822 34.4451 98.9822 35.092Z" fill="#FB923C"/>
<path fillRule="evenodd" clipRule="evenodd" d="M8.86281 7.06572C10.8261 6.67004 12.8722 8.69654 13.4291 11.5883C13.9859 14.4801 12.8441 17.149 10.8807 17.5447C8.91745 17.9403 6.87137 15.9138 6.31451 13.0221C5.75763 10.1303 6.89949 7.46136 8.86281 7.06572Z" fill="#FB923C"/>
<path fillRule="evenodd" clipRule="evenodd" d="M20.6326 7.06572C18.6693 6.67004 16.6232 8.69654 16.0663 11.5883C15.5095 14.4801 16.6513 17.149 18.6147 17.5447C20.578 17.9403 22.624 15.9138 23.1809 13.0221C23.7378 10.1303 22.5959 7.46136 20.6326 7.06572Z" fill="#FB923C"/>
<path fillRule="evenodd" clipRule="evenodd" d="M1.07585 15.6713C2.47389 14.7138 4.70304 15.6081 6.0507 17.6673C7.39837 19.7264 7.3575 22.1756 5.95947 23.1331C4.56143 24.0906 2.33228 23.1963 0.984615 21.1372C-0.363048 19.078 -0.322185 16.6288 1.07585 15.6713Z" fill="#FB923C"/>
<path fillRule="evenodd" clipRule="evenodd" d="M29.2814 15.6713C27.8834 14.7138 25.6543 15.6081 24.3066 17.6673C22.9589 19.7264 22.9998 22.1756 24.3978 23.1331C25.7958 24.0906 28.025 23.1963 29.3727 21.1372C30.7203 19.078 30.6795 16.6288 29.2814 15.6713Z" fill="#FB923C"/>
<path fillRule="evenodd" clipRule="evenodd" d="M13.7653 37.3256C11.0148 40.1302 7.02464 40.8966 4.8563 38.8738C2.27576 36.4665 2.27576 31.6517 4.8563 26.837C5.89764 24.7553 7.88232 22.6736 10.1179 20.8222C13.0707 18.3841 17.2864 18.3842 20.239 20.8226C22.4748 22.6736 24.4595 24.7553 25.5009 26.837C28.0815 31.6517 28.0815 36.4665 25.5009 38.8738C23.3326 40.8966 19.3423 40.1302 16.5917 37.3258C15.8035 36.5466 14.5535 36.5464 13.7653 37.3256ZM13.6366 28.761L12.531 32.5579C12.45 32.823 12.4971 33.1119 12.6579 33.3357C12.8188 33.5596 13.0742 33.6918 13.3458 33.6918H17.039C17.3072 33.6918 17.5597 33.5629 17.721 33.3438C17.8823 33.1247 17.9336 32.8407 17.8595 32.5771L16.7866 28.7608C17.6198 28.2167 18.1728 27.2625 18.1728 26.1771C18.1728 24.4866 16.8312 23.1141 15.1786 23.1141C13.5261 23.1141 12.1844 24.4866 12.1844 26.1771C12.1844 27.306 12.7471 28.2298 13.6366 28.761Z" fill="#FB923C"/>
</svg>
